<svg width="11" height="10" viewBox="0 0 11 10" fill="none" xmlns="http://www.w3.org/2000/svg">
<path d="M0 5C0 5.37037 0.335125 5.66906 0.735962 5.66906H4.76404V9.33094C4.76404 9.69534 5.09916 10 5.5 10C5.90084 10 6.23596 9.69534 6.23596 9.33094V5.66906H10.264C10.6649 5.66906 11 5.37037 11 5C11 4.6356 10.6649 4.33094 10.264 4.33094H6.23596V0.669056C6.23596 0.304659 5.90084 0 5.5 0C5.09916 0 4.76404 0.304659 4.76404 0.669056V4.33094H0.735962C0.335125 4.33094 0 4.6356 0 5Z" fill="white"/>
</svg>
